HIERARCHY
ROOT Hips
{
  OFFSET 48.9931 55.5078 -10.2176
  CHANNELS 6 Xposition Yposition Zposition Zrotation Xrotation Yrotation
  JOINT spine
  {
    OFFSET 0 5.95438 0.342407
    CHANNELS 3 Zrotation Xrotation Yrotation
    JOINT spine1
    {
      OFFSET 0 8.85602 0
      CHANNELS 3 Zrotation Xrotation Yrotation
      JOINT spine2
      {
        OFFSET 0 8.48567 0
        CHANNELS 3 Zrotation Xrotation Yrotation
        JOINT Neck
        {
          OFFSET 0 21.7863 1.0387
          CHANNELS 3 Zrotation Xrotation Yrotation
          JOINT Head
          {
            OFFSET 0 6.5822 0
            CHANNELS 3 Zrotation Xrotation Yrotation
            End Site
            {
              OFFSET 0 15.9326 -5.25436
            }
          }
        }
        JOINT RightShoulder
        {
          OFFSET -3.57307 9.16386 -0.497525
          CHANNELS 3 Zrotation Xrotation Yrotation
          JOINT RightArm
          {
            OFFSET 0 12.0192 0
            CHANNELS 3 Zrotation Xrotation Yrotation
            JOINT RightArmRoll
            {
              OFFSET 0 6.06755 0
              CHANNELS 3 Zrotation Xrotation Yrotation
              JOINT RightForeArm
              {
                OFFSET 0 17.6726 0
                CHANNELS 3 Zrotation Xrotation Yrotation
                JOINT RightForeArmRoll
                {
                  OFFSET 0 6.80872 0
                  CHANNELS 3 Zrotation Xrotation Yrotation
                  JOINT RightHand
                  {
                    OFFSET 0 13.6636 0
                    CHANNELS 3 Zrotation Xrotation Yrotation
                    End Site
                    {
                      OFFSET 0 0 0
                    }
                  }
                }
              }
            }
          }
        }
        JOINT LeftShoulder
        {
          OFFSET 3.57307 9.16386 -0.497525
          CHANNELS 3 Zrotation Xrotation Yrotation
          JOINT LeftArm
          {
            OFFSET 0 12.0192 0
            CHANNELS 3 Zrotation Xrotation Yrotation
            JOINT LeftArmRoll
            {
              OFFSET 0 6.06754 0
              CHANNELS 3 Zrotation Xrotation Yrotation
              JOINT LeftForeArm
              {
                OFFSET 0 17.6726 0
                CHANNELS 3 Zrotation Xrotation Yrotation
                JOINT LeftForeArmRoll
                {
                  OFFSET 0 6.80872 0
                  CHANNELS 3 Zrotation Xrotation Yrotation
                  JOINT LeftHand
                  {
                    OFFSET 0 13.6636 0
                    CHANNELS 3 Zrotation Xrotation Yrotation
                    End Site
                    {
                      OFFSET 0 0 0
                    }
                  }
                }
              }
            }
          }
        }
      }
    }
  }
  JOINT RightUpLeg
  {
    OFFSET -5.27774 -0.967797 -0.811858
    CHANNELS 3 Zrotation Xrotation Yrotation
    JOINT RightUpLegRoll
    {
      OFFSET 0 16.0214 0
      CHANNELS 3 Zrotation Xrotation Yrotation
      JOINT RightLeg
      {
        OFFSET 0 -19.8401 0
        CHANNELS 3 Zrotation Xrotation Yrotation
        JOINT RightLegRoll
        {
          OFFSET 0 19.905 0
          CHANNELS 3 Zrotation Xrotation Yrotation
          JOINT RightFoot
          {
            OFFSET 0 16.5675 0
            CHANNELS 3 Zrotation Xrotation Yrotation
            JOINT RightToeBase
            {
              OFFSET 0 13.8496 0
              CHANNELS 3 Zrotation Xrotation Yrotation
              End Site
              {
                OFFSET 0.00587034 6.70728 -0.773117
              }
            }
          }
        }
      }
    }
  }
  JOINT LeftUpLeg
  {
    OFFSET 5.27774 -0.967797 -0.811858
    CHANNELS 3 Zrotation Xrotation Yrotation
    JOINT LeftUpLegRoll
    {
      OFFSET 0 16.0215 0
      CHANNELS 3 Zrotation Xrotation Yrotation
      JOINT LeftLeg
      {
        OFFSET 0 19.84 0
        CHANNELS 3 Zrotation Xrotation Yrotation
        JOINT LeftLegRoll
        {
          OFFSET 0 20.089 0
          CHANNELS 3 Zrotation Xrotation Yrotation
          JOINT LeftFoot
          {
            OFFSET 0 16.3835 0
            CHANNELS 3 Zrotation Xrotation Yrotation
            JOINT LeftToeBase
            {
              OFFSET 0 13.8496 0
              CHANNELS 3 Zrotation Xrotation Yrotation
              End Site
              {
                OFFSET -0.0263083 6.70728 -0.773117
              }
            }
          }
        }
      }
    }
  }
}
MOTION
Frames: 5
Frame Time: 0.00208333
47.6972 55.0206 -10.3709 -7.1036 7.03687 6.4292 1.39859 0.285527 0.116519 2.80331 4.57255 0.0455498 2.80747 6.21648 -0.00230217 -2.3557 29.1245 -2.64101 2.48815 13.0914 -3.8658 69.615 1.97656 -0.216608 104.094 19.7888 -9.22185 -7.39778e-006 -9.37148e-007 4.91498e-007 -4.02613 26.7761 -1.23213 -3.57969e-006 4.4659e-006 -3.00001 8.03006 -4.95139 0.697629 -59.3551 -6.23469 3.85371 -120.367 32.2892 24.1964 -3.97569e-015 -1.59028e-015 1.59028e-015 3.64031 -0.0276095 1.99257 7.46851e-007 9.05022e-007 3.0116 -8.03007 -4.95139 -0.697628 -72.9109 85.8519 -108.377 180 7.01589e-015 179.126 -171.517 72.0885 169.941 -6.21683e-008 -2.57407e-006 1.61526 -20.259 69.4607 20.8434 8.13649 25.2327 -3.48774 4.13289 86.2599 -178.212 4.54188e-006 -4.6773e-006 -0.933515 18.2714 -73.7968 16.9281 -1.85314e-006 -5.42784e-006 -1.49159 16.6027 63.2923 -16.2186 -8.13649 25.2327 3.48774 
47.7505 54.975 -10.398 -7.11527 6.88905 6.37899 1.4023 0.292188 0.117195 2.81079 4.58627 0.0460627 2.81497 6.23019 -0.00191332 -2.31449 29.1393 -2.64404 2.45312 13.0966 -3.84872 69.6743 1.99825 -0.213974 104.025 19.7909 -9.14856 -7.39778e-006 -9.37148e-007 4.91498e-007 -4.02613 26.7776 -1.23205 -3.57969e-006 4.4659e-006 -3.00001 8.03006 -4.95139 0.697629 -59.334 -6.2642 3.87121 -120.4 32.2688 24.2352 -7.95139e-015 -1.59028e-015 -0 3.64027 -0.0276052 1.99257 7.46851e-007 9.05022e-007 3.0116 -8.03007 -4.95139 -0.697628 -74.6394 85.8386 -106.616 180 7.01589e-015 179.122 -171.524 72.0803 169.947 -6.21683e-008 -2.57407e-006 1.61505 -20.2578 69.4589 20.842 8.13649 25.2327 -3.48774 3.65494 86.371 -177.704 4.54188e-006 -4.6773e-006 -0.937238 18.4338 -73.8574 17.0737 -1.85314e-006 -5.42784e-006 -1.49438 16.6023 63.2858 -16.2146 -8.13649 25.2327 3.48774 
47.7427 54.9769 -10.406 -7.13157 6.73347 6.32283 1.40669 0.300949 0.117992 2.81963 4.60407 0.0466919 2.82382 6.24799 -0.00141965 -2.27845 29.1477 -2.64226 2.41965 13.1068 -3.82927 69.7352 2.02468 -0.209216 103.955 19.7989 -9.07609 -7.39778e-006 -9.37148e-007 4.91499e-007 -4.02592 26.7717 -1.23232 -3.57969e-006 4.4659e-006 -3.00001 8.03006 -4.95139 0.697629 -59.3132 -6.30098 3.89326 -120.435 32.2541 24.275 1.15295e-014 -4.77083e-015 1.59028e-015 3.64027 -0.0276056 1.99257 7.46851e-007 9.05022e-007 3.0116 -8.03007 -4.95139 -0.697628 -76.5122 85.815 -104.706 180 7.01588e-015 179.118 -171.532 72.0702 169.956 -6.21683e-008 -2.57407e-006 1.61487 -20.2559 69.4564 20.8398 8.13649 25.2327 -3.48774 3.01563 86.4892 -177.03 4.54188e-006 -4.6773e-006 -0.941065 18.6054 -73.9184 17.2276 -1.85314e-006 -5.42784e-006 -1.49736 16.6026 63.2804 -16.2112 -8.13649 25.2327 3.48774 
47.7116 54.9978 -10.4145 -7.15133 6.57118 6.26149 1.41156 0.31147 0.118902 2.82942 4.62532 0.0474372 2.83364 6.26923 -0.000815143 -2.24786 29.1513 -2.63586 2.38841 13.1207 -3.80776 69.7967 2.05549 -0.202382 103.886 19.8104 -9.0034 -7.39778e-006 -9.37148e-007 4.91499e-007 -4.02555 26.761 -1.23285 -3.57969e-006 4.4659e-006 -3.00001 8.03006 -4.95139 0.697629 -59.2932 -6.34405 3.91924 -120.47 32.2446 24.3152 -6.75868e-015 0 -0 3.64026 -0.0276061 1.99257 7.46851e-007 9.05022e-007 3.0116 -8.03007 -4.95139 -0.697628 -78.4857 85.781 -102.691 180 7.01587e-015 179.114 -171.542 72.0588 169.966 -6.21683e-008 -2.57407e-006 1.61477 -20.2535 69.4532 20.837 8.13649 25.2327 -3.48774 2.21605 86.6136 -176.192 4.54188e-006 -4.6773e-006 -0.944991 18.785 -73.9797 17.3888 -1.85314e-006 -5.42784e-006 -1.50049 16.6037 63.2759 -16.2083 -8.13649 25.2327 3.48774 
47.7349 54.9711 -10.4339 -7.17453 6.40281 6.19547 1.41688 0.323595 0.119914 2.84014 4.64972 0.0482846 2.84439 6.29362 -0.000114598 -2.22197 29.1504 -2.62537 2.359 13.138 -3.78438 69.859 2.09017 -0.193751 103.816 19.8257 -8.93064 -7.39778e-006 -9.37148e-007 4.91499e-007 -4.02502 26.7451 -1.23363 -3.57969e-006 4.4659e-006 -3.00001 8.03006 -4.95139 0.697629 -59.2736 -6.39283 3.94879 -120.507 32.2398 24.356 7.95139e-016 3.18055e-015 1.59028e-015 3.64026 -0.0276065 1.99257 7.46851e-007 9.05022e-007 3.0116 -8.03007 -4.95139 -0.697628 -80.5347 85.7363 -100.596 180 7.01586e-015 179.11 -171.554 72.0462 169.977 -6.21683e-008 -2.57407e-006 1.61474 -20.2506 69.4495 20.8338 8.13649 25.2327 -3.48774 1.2431 86.743 -175.177 4.54188e-006 -4.6773e-006 -0.94901 18.9724 -74.0412 17.5569 -1.85314e-006 -5.42784e-006 -1.50375 16.6053 63.2721 -16.2058 -8.13649 25.2327 3.48774 
